<svg viewBox="0 0 512 512"><g><g><g><g><g><g><g><circle cx="256" cy="256" fill="transparent" r="256"/></g></g></g></g></g></g><path d="m512 256c0-4.962-.141-9.892-.42-14.785l-98.016-98.798-9.243-8.461-74.723-11.378-72.109-72.108-134.875 79.68-3.843 100.801 64.207 124.949-101.183-101.182-13.914 20.952 25.155 88.257 147.62 147.62c5.076.3 10.193.453 15.344.453 141.385 0 256-114.615 256-256z" fill="transparent"/><g><path d="m430.292 257.34h31.281c0-89.223-72.589-161.812-161.812-161.812-85.268 0-155.343 66.296-161.388 150.05-.3 3.434-.454 6.911-.454 10.423 0 3.189.127 6.348.375 9.473-7.282-16.254-11.335-34.259-11.335-53.192 0-71.975 58.556-130.531 130.531-130.531v-31.281c-89.223 0-161.812 72.589-161.812 161.812 0 86.102 67.599 156.713 152.511 161.548 2.485.162 4.991.247 7.516.254.594.007 1.189.01 1.784.01v-.019c2.892-.036 5.758-.176 8.596-.416-16.402 7.443-34.605 11.59-53.759 11.59-71.975 0-130.531-58.556-130.531-130.531h-31.281c0 89.223 72.589 161.812 161.812 161.812s161.812-72.588 161.812-161.812h-.061c-.03-2.807-.158-5.592-.38-8.349 7.343 16.311 11.431 34.39 11.431 53.407 0 71.975-58.556 130.531-130.531 130.531v31.281c89.223 0 161.812-72.589 161.812-161.812 0-84.809-65.584-154.588-148.699-161.285-3.852-.379-7.757-.574-11.709-.574-3.309 0-6.587.136-9.827.403 16.357-7.394 34.5-11.511 53.586-11.511 71.975 0 130.532 58.556 130.532 130.531z" fill="rgb(64, 142, 173)"/></g><g><circle cx="256" cy="256" fill="#333333" r="62.552"/></g></g></svg>
